<svg xmlns="http://www.w3.org/2000/svg" viewBox="0 0 360 128" role="img" aria-labelledby="brandTitle brandDesc">
  <title id="brandTitle">Hope's Safety Backpack</title>
  <desc id="brandDesc">A playful sticker-style logo for Hope's Safety Backpack.</desc>
  <defs>
    <linearGradient id="packBody" x1="31" y1="21" x2="92" y2="111" gradientUnits="userSpaceOnUse">
      <stop offset="0" stop-color="#37d7ff"/>
      <stop offset=".5" stop-color="#155eef"/>
      <stop offset="1" stop-color="#0c1425"/>
    </linearGradient>
    <linearGradient id="sunset" x1="19" y1="36" x2="94" y2="99" gradientUnits="userSpaceOnUse">
      <stop offset="0" stop-color="#f7b500"/>
      <stop offset=".48" stop-color="#f15a24"/>
      <stop offset="1" stop-color="#d71920"/>
    </linearGradient>
    <filter id="lift" x="-12%" y="-20%" width="124%" height="142%">
      <feDropShadow dx="0" dy="7" stdDeviation="0" flood-color="#0c1425" flood-opacity=".12"/>
      <feDropShadow dx="0" dy="14" stdDeviation="10" flood-color="#0c1425" flood-opacity=".14"/>
    </filter>
  </defs>
  <rect x="7" y="8" width="346" height="108" rx="30" fill="#fffaf0" stroke="#0c1425" stroke-width="4" stroke-dasharray="9 6"/>
  <path d="M130 92c36 14 79 8 123-16 34-18 60-20 83-8" fill="none" stroke="#155eef" stroke-opacity=".12" stroke-width="14" stroke-linecap="round"/>
  <g filter="url(#lift)">
    <circle cx="64" cy="62" r="41" fill="#fff" stroke="#0c1425" stroke-width="3"/>
    <path d="M47 54c0-12 7-20 17-20s17 8 17 20" fill="none" stroke="#0c1425" stroke-width="7" stroke-linecap="round"/>
    <path d="M39 57c0-8 6-15 14-15h22c8 0 14 7 14 15v28c0 5-4 9-9 9H48c-5 0-9-4-9-9V57Z" fill="url(#packBody)" stroke="#0c1425" stroke-width="4"/>
    <path d="M41 69h46" stroke="#fffaf0" stroke-width="4" stroke-linecap="round"/>
    <path d="M47 55c8-3 13-3 18 0 5-3 10-3 18 0" fill="none" stroke="url(#sunset)" stroke-width="5" stroke-linecap="round"/>
    <rect x="53" y="63" width="23" height="19" rx="6" fill="#fffaf0" stroke="#0c1425" stroke-width="3"/>
    <path d="m64.5 65 2.5 5.4h5.8l-4.6 3.7 1.7 5.8-5.4-3.1-5.4 3.1 1.7-5.8-4.6-3.7H62l2.5-5.4Z" fill="#f7b500" stroke="#0c1425" stroke-linejoin="round" stroke-width="1.8"/>
  </g>
  <g fill="#0c1425" font-family="Trebuchet MS, Arial Rounded MT Bold, Arial, sans-serif" font-weight="900">
    <text x="121" y="55" font-size="32">Hope's Safety</text>
    <text x="121" y="88" font-size="34">Backpack</text>
  </g>
  <g font-family="Trebuchet MS, Arial Rounded MT Bold, Arial, sans-serif" font-weight="900" font-size="12">
    <rect x="240" y="26" width="84" height="22" rx="11" fill="#f7b500" stroke="#0c1425" stroke-width="2"/>
    <text x="252" y="41" fill="#0c1425">BE READY</text>
    <rect x="247" y="84" width="78" height="22" rx="11" fill="#71f0df" stroke="#0c1425" stroke-width="2"/>
    <text x="258" y="99" fill="#0c1425">BE KIND</text>
  </g>
  <path d="M331 30c4 2 7 2 11 0-3 4-3 7 0 11-4-2-7-2-11 0 3-4 3-7 0-11Z" fill="#d71920"/>
  <path d="M105 24c6-8 15-8 21 0" fill="none" stroke="#d71920" stroke-width="5" stroke-linecap="round"/>
</svg>
