<svg xmlns="http://www.w3.org/2000/svg" viewBox="0 0 64 64" role="img" aria-label="Hope's Safety Backpack favicon">
  <defs>
    <linearGradient id="body" x1="16" y1="8" x2="50" y2="58" gradientUnits="userSpaceOnUse">
      <stop offset="0" stop-color="#37d7ff"/>
      <stop offset=".52" stop-color="#155eef"/>
      <stop offset="1" stop-color="#0c1425"/>
    </linearGradient>
  </defs>
  <circle cx="32" cy="32" r="30" fill="#fffaf0"/>
  <circle cx="32" cy="32" r="26" fill="#fff" stroke="#0c1425" stroke-width="3" stroke-dasharray="5 4"/>
  <path d="M22 28c0-8 4-14 10-14s10 6 10 14" fill="none" stroke="#0c1425" stroke-width="5" stroke-linecap="round"/>
  <path d="M17 30c0-6 4-10 10-10h10c6 0 10 4 10 10v17c0 4-3 7-7 7H24c-4 0-7-3-7-7V30Z" fill="url(#body)" stroke="#0c1425" stroke-width="3"/>
  <path d="M19 36h26" stroke="#fffaf0" stroke-width="3" stroke-linecap="round"/>
  <path d="M21 29c5-2 8-2 11 0 3-2 6-2 11 0" fill="none" stroke="#f15a24" stroke-width="4" stroke-linecap="round"/>
  <rect x="24" y="36" width="16" height="13" rx="4" fill="#fffaf0" stroke="#0c1425" stroke-width="2"/>
  <path d="m32 37 1.8 3.8h4.1l-3.3 2.7 1.3 4-3.9-2.2-3.9 2.2 1.3-4-3.3-2.7h4.1L32 37Z" fill="#f7b500" stroke="#0c1425" stroke-linejoin="round" stroke-width="1.4"/>
</svg>
