<svg xmlns="http://www.w3.org/2000/svg" viewBox="0 0 96 96" role="img" aria-labelledby="logoTitle logoDesc">
  <title id="logoTitle">Hope's Safety Backpack mark</title>
  <desc id="logoDesc">A cheerful sticker-style backpack with a heart, star, and rainbow tabs.</desc>
  <defs>
    <linearGradient id="packBody" x1="25" y1="14" x2="74" y2="84" gradientUnits="userSpaceOnUse">
      <stop offset="0" stop-color="#37d7ff"/>
      <stop offset=".5" stop-color="#155eef"/>
      <stop offset="1" stop-color="#0c1425"/>
    </linearGradient>
    <linearGradient id="rainbow" x1="20" y1="20" x2="78" y2="76" gradientUnits="userSpaceOnUse">
      <stop offset="0" stop-color="#f7b500"/>
      <stop offset=".42" stop-color="#f15a24"/>
      <stop offset="1" stop-color="#d71920"/>
    </linearGradient>
    <filter id="stickerShadow" x="-20%" y="-20%" width="140%" height="140%">
      <feDropShadow dx="0" dy="7" stdDeviation="0" flood-color="#0c1425" flood-opacity=".12"/>
      <feDropShadow dx="0" dy="12" stdDeviation="8" flood-color="#0c1425" flood-opacity=".16"/>
    </filter>
  </defs>
  <circle cx="48" cy="48" r="43" fill="#fffaf0"/>
  <circle cx="48" cy="48" r="39" fill="#fff" stroke="#0c1425" stroke-width="3" stroke-dasharray="7 5"/>
  <g filter="url(#stickerShadow)">
    <path d="M30 38c0-12 7-21 18-21s18 9 18 21" fill="none" stroke="#0c1425" stroke-width="7" stroke-linecap="round"/>
    <path d="M31 38c0-10 7-17 17-17s17 7 17 17" fill="none" stroke="#fffaf0" stroke-width="4" stroke-linecap="round"/>
    <path d="M23 42c0-8 6-15 14-15h22c8 0 14 7 14 15v29c0 5-4 9-9 9H32c-5 0-9-4-9-9V42Z" fill="url(#packBody)" stroke="#0c1425" stroke-width="4"/>
    <path d="M23 52h50" stroke="#fffaf0" stroke-width="4" stroke-linecap="round" opacity=".88"/>
    <path d="M33 65h30" stroke="#71f0df" stroke-width="4" stroke-linecap="round"/>
    <path d="M28 40c8-3 14-3 20 0 6-3 12-3 20 0" fill="none" stroke="url(#rainbow)" stroke-width="5" stroke-linecap="round"/>
    <rect x="35" y="45" width="26" height="21" rx="6" fill="#fffaf0" stroke="#0c1425" stroke-width="3"/>
    <path d="m48 47 2.7 6h6.4l-5 4.1 1.8 6.4-5.9-3.5-5.9 3.5 1.8-6.4-5-4.1h6.4L48 47Z" fill="#f7b500" stroke="#0c1425" stroke-linejoin="round" stroke-width="2"/>
    <path d="M70 57c7 1 10 5 10 10 0 6-4 10-10 10" fill="none" stroke="#0c1425" stroke-width="5" stroke-linecap="round"/>
    <path d="M26 57c-7 1-10 5-10 10 0 6 4 10 10 10" fill="none" stroke="#0c1425" stroke-width="5" stroke-linecap="round"/>
  </g>
  <path d="M77 18c3 2 5 2 8 0-2 3-2 5 0 8-3-2-5-2-8 0 2-3 2-5 0-8Z" fill="#f7b500" stroke="#0c1425" stroke-width="2"/>
  <path d="M15 21c4-5 10-5 14 0" fill="none" stroke="#d71920" stroke-width="4" stroke-linecap="round"/>
</svg>
