<svg xmlns="http://www.w3.org/2000/svg" viewBox="0 0 760 560">
  <rect width="760" height="560" rx="42" fill="#06133a"/>
  <path d="M118 144h524M118 280h524M118 416h524" stroke="#64d7ff" stroke-width="6" stroke-linecap="round" opacity=".38"/>
  <g>
    <rect x="90" y="88" width="176" height="112" rx="18" fill="#fff"/>
    <rect x="292" y="224" width="176" height="112" rx="18" fill="#fff"/>
    <rect x="494" y="360" width="176" height="112" rx="18" fill="#fff"/>
  </g>
  <g fill="#1258d6">
    <circle cx="126" cy="124" r="20"/><circle cx="328" cy="260" r="20"/><circle cx="530" cy="396" r="20"/>
  </g>
  <g stroke="#06133a" stroke-width="12" stroke-linecap="round">
    <path d="M154 124h68M126 158h96"/>
    <path d="M356 260h68M328 294h96"/>
    <path d="M558 396h68M530 430h96"/>
  </g>
  <path d="M226 144c68 0 66 136 136 136M430 280c68 0 66 136 136 136" fill="none" stroke="#d41225" stroke-width="8" stroke-linecap="round"/>
  <path d="m620 112 12 35h37l-30 22 11 35-30-22-30 22 11-35-30-22h37l12-35Z" fill="#fff" opacity=".9"/>
</svg>
