<svg xmlns="http://www.w3.org/2000/svg" viewBox="0 0 760 560">
  <rect width="760" height="560" rx="42" fill="#f8fbff"/>
  <circle cx="380" cy="280" r="196" fill="#eef6ff" stroke="#1258d6" stroke-width="5"/>
  <path d="M380 120c42 27 84 30 112 30v93c0 86-56 133-112 158-56-25-112-72-112-158v-93c28 0 70-3 112-30Z" fill="#06133a"/>
  <path d="M316 278c0-38 26-66 64-66s64 28 64 66v86H316v-86Z" fill="#1258d6" stroke="#fff" stroke-width="6"/>
  <path d="M346 272c0-21 13-36 34-36s34 15 34 36" fill="none" stroke="#64d7ff" stroke-width="7" stroke-linecap="round"/>
  <path d="M248 166c-28-34-88-9-66 44 13 31 66 62 66 62s53-31 66-62c22-53-38-78-66-44Z" fill="#d41225"/>
  <path d="M512 166c-28-34-88-9-66 44 13 31 66 62 66 62s53-31 66-62c22-53-38-78-66-44Z" fill="#d41225"/>
  <g fill="#fff" stroke="#1258d6" stroke-width="5">
    <circle cx="170" cy="392" r="54"/><circle cx="590" cy="392" r="54"/>
  </g>
  <path d="M146 392h48m-24-24v48M566 392l20 24 42-52" fill="none" stroke="#06133a" stroke-width="9" stroke-linecap="round" stroke-linejoin="round"/>
  <path d="M218 376c72 52 252 52 324 0" fill="none" stroke="#64d7ff" stroke-width="8" stroke-linecap="round"/>
</svg>
