<svg xmlns="http://www.w3.org/2000/svg" viewBox="0 0 760 560">
  <defs>
    <linearGradient id="bg" x1="0" y1="0" x2="760" y2="560" gradientUnits="userSpaceOnUse">
      <stop offset="0" stop-color="#f8fbff"/>
      <stop offset="1" stop-color="#dff2ff"/>
    </linearGradient>
  </defs>
  <rect width="760" height="560" rx="42" fill="url(#bg)"/>
  <circle cx="380" cy="282" r="155" fill="#06133a"/>
  <path d="M380 98c48 31 95 34 127 34v113c0 100-65 156-127 184-62-28-127-84-127-184V132c32 0 79-3 127-34Z" fill="#1258d6" opacity=".92"/>
  <path d="M311 254c0-43 29-75 69-75s69 32 69 75v95c0 17-13 30-30 30h-78c-17 0-30-13-30-30v-95Z" fill="#06133a" stroke="#fff" stroke-width="5"/>
  <path d="M338 246c0-25 16-42 42-42s42 17 42 42" fill="none" stroke="#64d7ff" stroke-width="7" stroke-linecap="round"/>
  <g fill="#fff" stroke="#1258d6" stroke-width="4">
    <circle cx="156" cy="150" r="54"/><circle cx="604" cy="150" r="54"/>
    <circle cx="128" cy="394" r="54"/><circle cx="632" cy="394" r="54"/>
    <circle cx="380" cy="486" r="44"/>
  </g>
  <g stroke="#06133a" stroke-width="8" stroke-linecap="round" stroke-linejoin="round" fill="none">
    <path d="M136 148h40m-20-20v40"/>
    <path d="M588 130h32v40h-32zM596 140h16"/>
    <path d="M108 402h40m-20-20v40"/>
    <path d="M612 380l20 28 30-44"/>
    <path d="M363 486h34m-17-17v34"/>
  </g>
  <g stroke="#64d7ff" stroke-width="4" stroke-linecap="round">
    <path d="M211 164l97 70M550 164l-98 70M183 376l128-57M579 376l-128-57M380 442v-62"/>
  </g>
</svg>
