<svg xmlns="http://www.w3.org/2000/svg" viewBox="0 0 760 560">
  <defs>
    <linearGradient id="panel" x1="0" y1="0" x2="760" y2="560"><stop stop-color="#26251e"/><stop offset="1" stop-color="#06133a"/></linearGradient>
    <radialGradient id="glow" cx="51%" cy="48%" r="48%"><stop stop-color="#64d7ff" stop-opacity=".48"/><stop offset=".58" stop-color="#1258d6" stop-opacity=".18"/><stop offset="1" stop-opacity="0"/></radialGradient>
  </defs>
  <rect width="760" height="560" rx="22" fill="url(#panel)"/>
  <path d="M80 98h600M80 462h600M104 78v404M656 78v404" stroke="#f2f1ed" stroke-opacity=".08"/>
  <circle cx="380" cy="280" r="224" fill="url(#glow)"/>
  <circle cx="380" cy="280" r="204" fill="none" stroke="#64d7ff" stroke-width="3" opacity=".7"/>
  <circle cx="380" cy="280" r="151" fill="none" stroke="#f54e00" stroke-width="3" opacity=".55" stroke-dasharray="22 18"/>
  <path d="M380 88c52 34 104 38 138 38v126c0 108-72 169-138 198-66-29-138-90-138-198V126c34 0 86-4 138-38Z" fill="#1258d6" stroke="#9ee9ff" stroke-width="5"/>
  <path d="M294 254c0-54 36-94 86-94s86 40 86 94v122c0 22-17 39-39 39H333c-22 0-39-17-39-39V254Z" fill="#06133a" stroke="#fff" stroke-width="6"/>
  <path d="M328 246c0-32 20-54 52-54s52 22 52 54" fill="none" stroke="#64d7ff" stroke-width="9" stroke-linecap="round"/>
  <rect x="338" y="282" width="84" height="64" rx="16" fill="#d41225"/>
  <path d="m380 277 8 24h26l-21 15 8 25-21-15-21 15 8-25-21-15h26l8-24Z" fill="#fff"/>
  <path d="M174 214h82M504 214h82M150 346h108M502 346h108" stroke="#64d7ff" stroke-width="5" stroke-linecap="round"/>
  <circle cx="164" cy="214" r="10" fill="#fff"/><circle cx="596" cy="214" r="10" fill="#fff"/><circle cx="140" cy="346" r="10" fill="#fff"/><circle cx="620" cy="346" r="10" fill="#fff"/>
  <path d="M118 120h72M570 120h72M118 440h72M570 440h72" stroke="#f54e00" stroke-width="7" stroke-linecap="round"/>
</svg>
